<mxfile host="65bd71144e">
    <diagram id="TpuLqfxWyhtw36WD9rQO" name="ERD">
        <mxGraphModel dx="906" dy="370" grid="1" gridSize="10" guides="1" tooltips="1" connect="1" arrows="1" fold="1" page="1" pageScale="1" pageWidth="850" pageHeight="1100" math="0" shadow="0">
            <root>
                <mxCell id="0"/>
                <mxCell id="1" parent="0"/>
                <mxCell id="3" value="Agent" style="swimlane;fontStyle=0;childLayout=stackLayout;horizontal=1;startSize=30;horizontalStack=0;resizeParent=1;resizeParentMax=0;resizeLast=0;collapsible=1;marginBottom=0;whiteSpace=wrap;html=1;" vertex="1" parent="1">
                    <mxGeometry x="130" y="190" width="140" height="120" as="geometry"/>
                </mxCell>
                <mxCell id="4" value="( PK ) Agent_id" style="text;strokeColor=none;fillColor=none;align=left;verticalAlign=middle;spacingLeft=4;spacingRight=4;overflow=hidden;points=[[0,0.5],[1,0.5]];portConstraint=eastwest;rotatable=0;whiteSpace=wrap;html=1;" vertex="1" parent="3">
                    <mxGeometry y="30" width="140" height="30" as="geometry"/>
                </mxCell>
                <mxCell id="5" value="Name" style="text;strokeColor=none;fillColor=none;align=left;verticalAlign=middle;spacingLeft=4;spacingRight=4;overflow=hidden;points=[[0,0.5],[1,0.5]];portConstraint=eastwest;rotatable=0;whiteSpace=wrap;html=1;" vertex="1" parent="3">
                    <mxGeometry y="60" width="140" height="30" as="geometry"/>
                </mxCell>
                <mxCell id="7" value="Phone Number" style="text;strokeColor=none;fillColor=none;align=left;verticalAlign=middle;spacingLeft=4;spacingRight=4;overflow=hidden;points=[[0,0.5],[1,0.5]];portConstraint=eastwest;rotatable=0;whiteSpace=wrap;html=1;" vertex="1" parent="3">
                    <mxGeometry y="90" width="140" height="30" as="geometry"/>
                </mxCell>
                <mxCell id="8" value="Voucher" style="swimlane;fontStyle=0;childLayout=stackLayout;horizontal=1;startSize=30;horizontalStack=0;resizeParent=1;resizeParentMax=0;resizeLast=0;collapsible=1;marginBottom=0;whiteSpace=wrap;html=1;" vertex="1" parent="1">
                    <mxGeometry x="355" y="190" width="140" height="240" as="geometry"/>
                </mxCell>
                <mxCell id="9" value="name" style="text;strokeColor=none;fillColor=none;align=left;verticalAlign=middle;spacingLeft=4;spacingRight=4;overflow=hidden;points=[[0,0.5],[1,0.5]];portConstraint=eastwest;rotatable=0;whiteSpace=wrap;html=1;" vertex="1" parent="8">
                    <mxGeometry y="30" width="140" height="30" as="geometry"/>
                </mxCell>
                <mxCell id="10" value="password" style="text;strokeColor=none;fillColor=none;align=left;verticalAlign=middle;spacingLeft=4;spacingRight=4;overflow=hidden;points=[[0,0.5],[1,0.5]];portConstraint=eastwest;rotatable=0;whiteSpace=wrap;html=1;" vertex="1" parent="8">
                    <mxGeometry y="60" width="140" height="30" as="geometry"/>
                </mxCell>
                <mxCell id="11" value="Profile" style="text;strokeColor=none;fillColor=none;align=left;verticalAlign=middle;spacingLeft=4;spacingRight=4;overflow=hidden;points=[[0,0.5],[1,0.5]];portConstraint=eastwest;rotatable=0;whiteSpace=wrap;html=1;" vertex="1" parent="8">
                    <mxGeometry y="90" width="140" height="30" as="geometry"/>
                </mxCell>
                <mxCell id="12" value="Limit Uptime" style="text;strokeColor=none;fillColor=none;align=left;verticalAlign=middle;spacingLeft=4;spacingRight=4;overflow=hidden;points=[[0,0.5],[1,0.5]];portConstraint=eastwest;rotatable=0;whiteSpace=wrap;html=1;" vertex="1" parent="8">
                    <mxGeometry y="120" width="140" height="30" as="geometry"/>
                </mxCell>
                <mxCell id="13" value="Price" style="text;strokeColor=none;fillColor=none;align=left;verticalAlign=middle;spacingLeft=4;spacingRight=4;overflow=hidden;points=[[0,0.5],[1,0.5]];portConstraint=eastwest;rotatable=0;whiteSpace=wrap;html=1;" vertex="1" parent="8">
                    <mxGeometry y="150" width="140" height="30" as="geometry"/>
                </mxCell>
                <mxCell id="14" value="Voucher ID&amp;nbsp; ( FK )" style="text;strokeColor=none;fillColor=none;align=left;verticalAlign=middle;spacingLeft=4;spacingRight=4;overflow=hidden;points=[[0,0.5],[1,0.5]];portConstraint=eastwest;rotatable=0;whiteSpace=wrap;html=1;" vertex="1" parent="8">
                    <mxGeometry y="180" width="140" height="30" as="geometry"/>
                </mxCell>
                <mxCell id="15" style="text;strokeColor=none;fillColor=none;align=left;verticalAlign=middle;spacingLeft=4;spacingRight=4;overflow=hidden;points=[[0,0.5],[1,0.5]];portConstraint=eastwest;rotatable=0;whiteSpace=wrap;html=1;" vertex="1" parent="8">
                    <mxGeometry y="210" width="140" height="30" as="geometry"/>
                </mxCell>
                <mxCell id="25" value="" style="edgeStyle=entityRelationEdgeStyle;fontSize=12;html=1;endArrow=ERoneToMany;exitX=1;exitY=0.5;exitDx=0;exitDy=0;entryX=0;entryY=0.5;entryDx=0;entryDy=0;" edge="1" parent="1" source="4" target="14">
                    <mxGeometry width="100" height="100" relative="1" as="geometry">
                        <mxPoint x="300" y="330" as="sourcePoint"/>
                        <mxPoint x="400" y="230" as="targetPoint"/>
                    </mxGeometry>
                </mxCell>
            </root>
        </mxGraphModel>
    </diagram>
    <diagram id="pyGibPogYa-xi_B4qwP1" name="Page-2">
        <mxGraphModel dx="906" dy="370" grid="1" gridSize="10" guides="1" tooltips="1" connect="1" arrows="1" fold="1" page="1" pageScale="1" pageWidth="850" pageHeight="1100" math="0" shadow="0">
            <root>
                <mxCell id="0"/>
                <mxCell id="1" parent="0"/>
                <mxCell id="U1XzKYBDNAB31oUUy3UC-3" value="" style="edgeStyle=none;html=1;exitX=1;exitY=0.5;exitDx=0;exitDy=0;" edge="1" parent="1" source="U1XzKYBDNAB31oUUy3UC-17" target="U1XzKYBDNAB31oUUy3UC-2">
                    <mxGeometry relative="1" as="geometry">
                        <mxPoint x="150" y="170" as="sourcePoint"/>
                    </mxGeometry>
                </mxCell>
                <mxCell id="U1XzKYBDNAB31oUUy3UC-5" value="" style="edgeStyle=none;html=1;entryX=0;entryY=0.5;entryDx=0;entryDy=0;" edge="1" parent="1" source="U1XzKYBDNAB31oUUy3UC-2" target="U1XzKYBDNAB31oUUy3UC-6">
                    <mxGeometry relative="1" as="geometry">
                        <mxPoint x="390" y="170" as="targetPoint"/>
                    </mxGeometry>
                </mxCell>
                <mxCell id="U1XzKYBDNAB31oUUy3UC-2" value="MIKROTIK" style="whiteSpace=wrap;html=1;aspect=fixed;" vertex="1" parent="1">
                    <mxGeometry x="230" y="130" width="80" height="80" as="geometry"/>
                </mxCell>
                <mxCell id="U1XzKYBDNAB31oUUy3UC-11" value="" style="edgeStyle=none;html=1;" edge="1" parent="1" source="U1XzKYBDNAB31oUUy3UC-6" target="U1XzKYBDNAB31oUUy3UC-10">
                    <mxGeometry relative="1" as="geometry"/>
                </mxCell>
                <mxCell id="U1XzKYBDNAB31oUUy3UC-6" value="STORE VOUCHER" style="whiteSpace=wrap;html=1;aspect=fixed;" vertex="1" parent="1">
                    <mxGeometry x="550" y="130" width="80" height="80" as="geometry"/>
                </mxCell>
                <mxCell id="U1XzKYBDNAB31oUUy3UC-10" value="DONE" style="ellipse;whiteSpace=wrap;html=1;" vertex="1" parent="1">
                    <mxGeometry x="710" y="130" width="80" height="80" as="geometry"/>
                </mxCell>
                <mxCell id="U1XzKYBDNAB31oUUy3UC-13" value="" style="edgeStyle=none;html=1;" edge="1" parent="1" source="U1XzKYBDNAB31oUUy3UC-12" target="U1XzKYBDNAB31oUUy3UC-6">
                    <mxGeometry relative="1" as="geometry"/>
                </mxCell>
                <mxCell id="U1XzKYBDNAB31oUUy3UC-12" value="Store Voucher ke Database" style="shape=note;whiteSpace=wrap;html=1;backgroundOutline=1;darkOpacity=0.05;" vertex="1" parent="1">
                    <mxGeometry x="550" y="250" width="80" height="100" as="geometry"/>
                </mxCell>
                <mxCell id="U1XzKYBDNAB31oUUy3UC-16" value="" style="edgeStyle=none;html=1;" edge="1" parent="1" source="U1XzKYBDNAB31oUUy3UC-14" target="U1XzKYBDNAB31oUUy3UC-2">
                    <mxGeometry relative="1" as="geometry"/>
                </mxCell>
                <mxCell id="U1XzKYBDNAB31oUUy3UC-14" value="- Login ke Mikrotik&lt;br&gt;- Melihat Voucher List&lt;br&gt;- Merubah status voucher ke Sold" style="shape=note;whiteSpace=wrap;html=1;backgroundOutline=1;darkOpacity=0.05;" vertex="1" parent="1">
                    <mxGeometry x="185" y="270" width="170" height="140" as="geometry"/>
                </mxCell>
                <mxCell id="U1XzKYBDNAB31oUUy3UC-17" value="Aplikasi Agent Voucher&amp;nbsp;" style="ellipse;whiteSpace=wrap;html=1;aspect=fixed;" vertex="1" parent="1">
                    <mxGeometry x="60" y="130" width="80" height="80" as="geometry"/>
                </mxCell>
            </root>
        </mxGraphModel>
    </diagram>
</mxfile>